HIERARCHY
ROOT hips_JNT
{
    OFFSET 0 0 0
    CHANNELS 6 Xposition Yposition Zposition Zrotation Xrotation Yrotation
    JOINT spine_JNT
    {
        OFFSET -0.000424254 9.31981 2.54342
        CHANNELS 3 Zrotation Xrotation Yrotation
        JOINT spine1_JNT
        {
            OFFSET 0 10.8731 -4.54485e-05
            CHANNELS 3 Zrotation Xrotation Yrotation
            JOINT spine2_JNT
            {
                OFFSET 0 12.4264 -5.95116
                CHANNELS 3 Zrotation Xrotation Yrotation
                JOINT neck_JNT
                {
                    OFFSET 0 13.9797 -1.46048
                    CHANNELS 3 Zrotation Xrotation Yrotation
                    JOINT head_JNT
                    {
                        OFFSET 0 5.8702 2.0915
                        CHANNELS 3 Zrotation Xrotation Yrotation
                        End Site
                        {
                            OFFSET 0 0 0
                        }
                    }
                }
                JOINT l_shoulder_JNT
                {
                    OFFSET 4.39914 12.861 -1.48501
                    CHANNELS 3 Zrotation Xrotation Yrotation
                    JOINT l_arm_JNT
                    {
                        OFFSET 8.75735 -2.31198 -0.0490516
                        CHANNELS 3 Zrotation Xrotation Yrotation
                        JOINT l_forearm_JNT
                        {
                            OFFSET 26.9001 -4.76837e-05 1.2666e-05
                            CHANNELS 3 Zrotation Xrotation Yrotation
                            JOINT l_hand_JNT
                            {
                                OFFSET 23.0148 -4.76837e-05 -3.72529e-06
                                CHANNELS 3 Zrotation Xrotation Yrotation
                                JOINT l_handThumb1_JNT
                                {
                                    OFFSET 3.63 -0.779998 2.13
                                    CHANNELS 3 Zrotation Xrotation Yrotation
                                    JOINT l_handThumb2_JNT
                                    {
                                        OFFSET 3.55114 -2.11837 2.24006
                                        CHANNELS 3 Zrotation Xrotation Yrotation
                                        JOINT l_handThumb3_JNT
                                        {
                                            OFFSET 2.15911 -1.11631 0.963467
                                            CHANNELS 3 Zrotation Xrotation Yrotation
                                            End Site
                                            {
                                                OFFSET 0 0 0
                                            }
                                        }
                                    }
                                }
                                JOINT l_handIndex1_JNT
                                {
                                    OFFSET 10.5149 -0.0410199 2.19757
                                    CHANNELS 3 Zrotation Xrotation Yrotation
                                    JOINT l_handIndex2_JNT
                                    {
                                        OFFSET 2.75183 -0.102866 -0.139054
                                        CHANNELS 3 Zrotation Xrotation Yrotation
                                        JOINT l_handIndex3_JNT
                                        {
                                            OFFSET 2.35301 -0.0733972 -0.0904871
                                            CHANNELS 3 Zrotation Xrotation Yrotation
                                            End Site
                                            {
                                                OFFSET 0 0 0
                                            }
                                        }
                                    }
                                }
                                JOINT l_handMiddle1_JNT
                                {
                                    OFFSET 10.0671 0.139201 0.0595726
                                    CHANNELS 3 Zrotation Xrotation Yrotation
                                    JOINT l_handMiddle2_JNT
                                    {
                                        OFFSET 3.90903 -0.288403 -0.119066
                                        CHANNELS 3 Zrotation Xrotation Yrotation
                                        JOINT l_handMiddle3_JNT
                                        {
                                            OFFSET 2.3284 -0.0191092 -0.0594396
                                            CHANNELS 3 Zrotation Xrotation Yrotation
                                            End Site
                                            {
                                                OFFSET 0 0 0
                                            }
                                        }
                                    }
                                }
                                JOINT l_handRing1_JNT
                                {
                                    OFFSET 9.46811 0.132239 -1.80983
                                    CHANNELS 3 Zrotation Xrotation Yrotation
                                    JOINT l_handRing2_JNT
                                    {
                                        OFFSET 3.28153 -0.224054 -0.0339366
                                        CHANNELS 3 Zrotation Xrotation Yrotation
                                        JOINT l_handRing3_JNT
                                        {
                                            OFFSET 2.245 -0.0702143 -0.00838935
                                            CHANNELS 3 Zrotation Xrotation Yrotation
                                            End Site
                                            {
                                                OFFSET 0 0 0
                                            }
                                        }
                                    }
                                }
                                JOINT l_handPinky1_JNT
                                {
                                    OFFSET 8.49077 -0.0777721 -3.58415
                                    CHANNELS 3 Zrotation Xrotation Yrotation
                                    JOINT l_handPinky2_JNT
                                    {
                                        OFFSET 2.53217 -0.0730753 -0.0170402
                                        CHANNELS 3 Zrotation Xrotation Yrotation
                                        JOINT l_handPinky3_JNT
                                        {
                                            OFFSET 1.95121 0.0251174 0.0170089
                                            CHANNELS 3 Zrotation Xrotation Yrotation
                                            End Site
                                            {
                                                OFFSET 0 0 0
                                            }
                                        }
                                    }
                                }
                            }
                        }
                    }
                }
                JOINT r_shoulder_JNT
                {
                    OFFSET -4.39782 12.8606 -1.48501
                    CHANNELS 3 Zrotation Xrotation Yrotation
                    JOINT r_arm_JNT
                    {
                        OFFSET -8.75732 -2.312 -0.0490502
                        CHANNELS 3 Zrotation Xrotation Yrotation
                        JOINT r_forearm_JNT
                        {
                            OFFSET -26.9 0 1.00583e-05
                            CHANNELS 3 Zrotation Xrotation Yrotation
                            JOINT r_hand_JNT
                            {
                                OFFSET -23.0149 0 0
                                CHANNELS 3 Zrotation Xrotation Yrotation
                                JOINT r_handThumb1_JNT
                                {
                                    OFFSET -3.63 -0.779998 2.13
                                    CHANNELS 3 Zrotation Xrotation Yrotation
                                    JOINT r_handThumb2_JNT
                                    {
                                        OFFSET -3.5512 -2.118 2.24006
                                        CHANNELS 3 Zrotation Xrotation Yrotation
                                        JOINT r_handThumb3_JNT
                                        {
                                            OFFSET -2.1591 -1.116 0.963467
                                            CHANNELS 3 Zrotation Xrotation Yrotation
                                            End Site
                                            {
                                                OFFSET 0 0 0
                                            }
                                        }
                                    }
                                }
                                JOINT r_handIndex1_JNT
                                {
                                    OFFSET -10.5149 -0.0409961 2.19756
                                    CHANNELS 3 Zrotation Xrotation Yrotation
                                    JOINT r_handIndex2_JNT
                                    {
                                        OFFSET -2.7518 -0.102997 -0.13905
                                        CHANNELS 3 Zrotation Xrotation Yrotation
                                        JOINT r_handIndex3_JNT
                                        {
                                            OFFSET -2.353 -0.0730038 -0.0904899
                                            CHANNELS 3 Zrotation Xrotation Yrotation
                                            End Site
                                            {
                                                OFFSET 0 0 0
                                            }
                                        }
                                    }
                                }
                                JOINT r_handMiddle1_JNT
                                {
                                    OFFSET -10.0671 0.139999 0.05957
                                    CHANNELS 3 Zrotation Xrotation Yrotation
                                    JOINT r_handMiddle2_JNT
                                    {
                                        OFFSET -3.9091 -0.288999 -0.11907
                                        CHANNELS 3 Zrotation Xrotation Yrotation
                                        JOINT r_handMiddle3_JNT
                                        {
                                            OFFSET -2.3284 -0.019002 -0.05944
                                            CHANNELS 3 Zrotation Xrotation Yrotation
                                            End Site
                                            {
                                                OFFSET 0 0 0
                                            }
                                        }
                                    }
                                }
                                JOINT r_handRing1_JNT
                                {
                                    OFFSET -9.4681 0.133002 -1.80983
                                    CHANNELS 3 Zrotation Xrotation Yrotation
                                    JOINT r_handRing2_JNT
                                    {
                                        OFFSET -3.2816 -0.224996 -0.0339396
                                        CHANNELS 3 Zrotation Xrotation Yrotation
                                        JOINT r_handRing3_JNT
                                        {
                                            OFFSET -2.245 -0.0699997 -0.0083901
                                            CHANNELS 3 Zrotation Xrotation Yrotation
                                            End Site
                                            {
                                                OFFSET 0 0 0
                                            }
                                        }
                                    }
                                }
                                JOINT r_handPinky1_JNT
                                {
                                    OFFSET -8.4908 -0.0769973 -3.58415
                                    CHANNELS 3 Zrotation Xrotation Yrotation
                                    JOINT r_handPinky2_JNT
                                    {
                                        OFFSET -2.5322 -0.0740051 -0.0170402
                                        CHANNELS 3 Zrotation Xrotation Yrotation
                                        JOINT r_handPinky3_JNT
                                        {
                                            OFFSET -1.9512 0.0259995 0.0170097
                                            CHANNELS 3 Zrotation Xrotation Yrotation
                                            End Site
                                            {
                                                OFFSET 0 0 0
                                            }
                                        }
                                    }
                                }
                            }
                        }
                    }
                }
            }
        }
    }
    JOINT l_upleg_JNT
    {
        OFFSET 10.0614 -5.18575 -0.706233
        CHANNELS 3 Zrotation Xrotation Yrotation
        JOINT l_leg_JNT
        {
            OFFSET -0.348572 -45.5824 -0.819168
            CHANNELS 3 Zrotation Xrotation Yrotation
            JOINT l_foot_JNT
            {
                OFFSET 0.349145 -42.3325 -1.70849
                CHANNELS 3 Zrotation Xrotation Yrotation
                JOINT l_toebase_JNT
                {
                    OFFSET 0.0702709 -8.12666 12.8887
                    CHANNELS 3 Zrotation Xrotation Yrotation
                    End Site
                    {
                        OFFSET 0 0 0
                    }
                }
            }
        }
    }
    JOINT r_upleg_JNT
    {
        OFFSET -10.061 -5.18577 -0.706233
        CHANNELS 3 Zrotation Xrotation Yrotation
        JOINT r_leg_JNT
        {
            OFFSET 0.34858 -45.5824 -0.819165
            CHANNELS 3 Zrotation Xrotation Yrotation
            JOINT r_foot_JNT
            {
                OFFSET -0.34918 -42.3325 -1.70849
                CHANNELS 3 Zrotation Xrotation Yrotation
                JOINT r_toebase_JNT
                {
                    OFFSET -0.0702001 -8.12666 12.8887
                    CHANNELS 3 Zrotation Xrotation Yrotation
                    End Site
                    {
                        OFFSET 0 0 0
                    }
                }
            }
        }
    }
}
MOTION
Frames: 4
Frame Time: 0.033333
-17.2382 101.75 -10.8425 9.77288 2.12128 33.2008 -10.1012 0.00402039 0.0559529 2.13443e-07 -2.33454e-07 0 3.07364 -0.0808192 -1.20721 -2.66112 14.7139 2.13286 22.8293 0.560424 1.73771 5.33609e-08 -1.06722e-07 0 -71.5543 21.2078 17.2609 -30.6281 2.60884 -9.50698 -1.00318e-05 1.70755e-06 0 4.10661 20.7048 -22.2077 -0 0 0 -17.5002 -0.265247 1.72233 -27.702 7.93938 1.96117 -35.7607 9.94407 3.21582 -23.7042 6.8769 1.44453 -32.325 6.10426 1.7694 -41.6577 7.57226 2.88504 -27.6794 5.30781 1.30864 -36.8024 -3.42825 -1.14122 -47.3512 -4.20665 -1.84562 -31.535 -2.99395 -0.845798 -40.4879 -7.39888 -2.73203 -52.2276 -8.98355 -4.41062 -34.6529 -6.48784 -2.02557 5.33609e-08 -1.06722e-07 0 23.3395 -15.2633 51.3526 -18.9856 -1.85193 0.0395647 3.41509e-06 -1.28066e-06 0 -4.10661 20.7048 22.2077 -0 0 0 8.13587 0.0576696 0.811801 12.811 3.80576 -0.426125 16.487 4.8664 -0.70443 10.9766 3.26932 -0.321425 14.9803 2.9594 -0.389667 19.2714 3.77653 -0.636734 12.8372 2.54434 -0.288035 17.0909 -1.68337 0.256409 21.978 -2.1433 0.413068 14.6482 -1.44861 0.189746 18.7346 -3.67546 0.606516 24.1085 -4.6703 0.999354 16.0524 -3.16541 0.447624 12.1935 -25.5036 19.0842 -8.94379 55.5777 4.71999 3.45289e-13 5.33608e-06 0 8.53774e-07 -2.13443e-07 0 -5.43726 -9.72961 12.8431 0.449389 13.0125 -0.964278 -1.34027 1.01923 5.73529 0.00222542 -0.806424 0.311533 
-17.3084 102.137 -11.1395 10.8259 3.5196 34.0135 -11.7506 0.0126093 0.0395647 -1.06722e-07 2.66804e-08 0 3.03716 -0.203492 -2.95527 -3.07025 14.6035 2.4607 22.9992 -0.196866 1.90407 1.60083e-07 3.20165e-07 0 -63.594 23.2229 16.6229 -40.566 5.54416 -14.9283 -2.42258e-05 3.41509e-06 0 4.10661 20.7048 -22.2077 -0 0 0 -17.4396 -0.263427 1.71641 -27.6049 7.91406 1.94635 -35.6344 9.91421 3.19334 -23.6213 6.85445 1.43529 -32.2122 6.0854 1.75964 -41.5118 7.55081 2.86462 -27.583 5.29087 1.30024 -36.6746 -3.41804 -1.13296 -47.1867 -4.19554 -1.83285 -31.4255 -2.98464 -0.837428 -40.3462 -7.37766 -2.71364 -52.044 -8.96155 -4.38195 -34.5318 -6.46817 -2.012 1.60083e-07 3.20165e-07 0 24.6049 -13.8195 54.3777 -20.6953 -1.98528 0.0395647 6.83019e-06 3.84198e-06 0 -4.10661 20.7048 22.2077 -0 0 0 8.10686 0.0572598 0.806966 12.7652 3.79242 -0.420579 16.428 4.84953 -0.702205 10.9374 3.25781 -0.316518 14.9268 2.94909 -0.389667 19.2025 3.76358 -0.635504 12.7914 2.53542 -0.279765 17.0299 -1.67755 0.253338 21.8996 -2.13604 0.411168 14.596 -1.44355 0.189746 18.6676 -3.66282 0.602632 24.0222 -4.65464 0.991491 15.995 -3.15442 0.440574 13.2843 -27.4361 21.3561 -14.7292 63.7724 9.19417 -3.41509e-06 7.68396e-06 0 -0 0 0 -7.71371 -9.5834 10.9984 0.445583 11.4204 -0.977979 -1.23532 1.89191 6.65192 0.00222663 -0.806433 0.306467 
-17.3537 102.487 -10.8481 12.8203 5.40704 35.7314 -13.6238 0.0185566 0 -7.95139e-16 -2.66804e-08 0 2.62422 -0.329984 -5.12401 -3.85126 15.696 3.09955 19.1601 -0.147872 1.57268 -2.13443e-07 1.06722e-07 0 -50.7697 42.1453 11.3681 -47.4536 14.236 -31.721 3.01822e-06 1.17394e-06 0 4.10661 20.7048 -22.2077 -0 0 0 -17.2228 -0.256967 1.69715 -27.2574 7.82327 1.89954 -35.1828 9.80702 3.11693 -23.3248 6.77403 1.40051 -31.8088 6.01775 1.71687 -40.9899 7.47368 2.79771 -27.2381 5.23016 1.26855 -36.2176 -3.38141 -1.1064 -46.598 -4.15553 -1.79051 -31.0341 -2.95126 -0.818522 -39.8392 -7.30136 -2.64853 -51.387 -8.8821 -4.27982 -34.099 -6.39756 -1.96476 -2.13443e-07 1.06722e-07 0 26.7839 -11.4098 59.7353 -24.5644 -0.939885 4.31553 5.12264e-06 -2.13443e-06 0.0559529 -4.10661 20.7048 22.2077 -0 0 0 7.7711 0.0526219 0.774298 12.2351 3.63779 -0.391671 15.7445 4.65387 -0.644067 10.4834 3.12441 -0.288035 14.3075 2.82955 -0.351659 18.405 3.61322 -0.584166 12.2609 2.43205 -0.256409 16.3242 -1.61 0.220287 20.9918 -2.05165 0.385629 13.9912 -1.38498 0.172458 17.8924 -3.51619 0.553906 23.0231 -4.4726 0.90999 15.3313 -3.02697 0.403482 12.2904 -29.1441 23.091 -20.6668 70.4603 14.6747 -7.68396e-06 -5.12264e-06 0 -1.70755e-06 -2.13443e-06 0 -10.4145 -9.84156 11.4426 0.447893 12.558 -0.969943 -0.969149 0.993605 4.29188 0.00222577 -0.806452 0.30901 
-17.4452 102.78 -9.96671 14.8273 7.361 38.1585 -15.1716 0.0233302 0 3.20165e-07 1.06722e-07 0 1.97588 -0.417902 -7.54775 -5.08515 16.8148 4.11057 14.5032 0.258664 1.13641 4.26887e-07 -2.13443e-07 0 -28.6383 56.8417 -2.26527 -45.3092 23.1314 -52.2388 -9.39151e-06 4.89805e-13 0 4.10661 20.7048 -22.2077 -0 0 0 -16.8681 -0.246565 1.66267 -26.6892 7.6741 1.82429 -34.4444 9.63034 2.99134 -22.84 6.64205 1.34171 -31.1489 5.9064 1.64802 -40.1364 7.34617 2.68668 -26.674 5.13042 1.21819 -35.4698 -3.321 -1.06237 -45.6349 -4.08911 -1.72188 -30.3937 -2.89635 -0.787329 -39.0101 -7.1753 -2.54422 -50.3127 -8.74963 -4.11533 -33.3909 -6.28125 -1.88672 4.26887e-07 -2.13443e-07 0 23.9112 -7.56663 58.4493 -23.2545 -4.27996 20.5854 5.12264e-06 -3.84198e-06 0 -4.10661 20.7048 22.2077 -0 0 0 7.53277 0.0494482 0.75173 11.8588 3.52784 -0.364768 15.2596 4.51458 -0.605224 10.1613 3.02961 -0.271242 13.868 2.74449 -0.338041 17.8391 3.50607 -0.548225 11.8844 2.35854 -0.243893 15.8232 -1.5619 0.220287 20.3474 -1.99144 0.358274 13.5619 -1.34331 0.176939 17.3424 -3.41172 0.518886 22.3143 -4.34255 0.853169 14.8602 -2.93626 0.383594 9.82176 -30.3631 24.1112 -21.4095 73.3705 16.0323 3.41509e-06 -4.26887e-06 0 -1.70755e-06 3.84198e-06 0 -12.6737 -9.69814 13.0686 0.455139 14.3834 -0.891745 -0.863065 -0.559897 0.0969133 0.00222553 -0.806388 0.306467 
